# xmcd
#
# Track frame offsets:
#	150
#	10166
#	31143
#	43768
#	60522
#	68879
#	88396
#	105124
#	118679
#	139379
#
# Disc length: 2136 seconds
#
# Revision: 0
# Processed by: cddbd v1.5.1PL2 Copyright (c) Steve Scherf et al.
# Submitted via: audiograbber 1.83.01
#
DISCID=8208560a
DTITLE=Various Artist - Mauritsstadt Dub Disco 2-Versão Roots
DYEAR=2005
DGENRE=Brasil
TTITLE0=Mestre Salustiano - Forró De Aliança
TTITLE1=Boi Brasileiro De Itaquitinga - Toada De Cavalo Marinho
TTITLE2=Lia De Itamaracá - Quem Me Deu Foi Lia
TTITLE3=Zé Neguinho Do Coco - Recife D'Água
TTITLE4=Caju E Castanha - Roda, Rodete, Rodeano
TTITLE5=Banda De Pífanos Dois Irmãos - Música De Caboclo Tocada No Pifano
TTITLE6=Dona Cila Do Côco - Juntando Côco
TTITLE7=Seu Bezerra - O Passarinho
TTITLE8=Zé Miúdo E Silva Da Paraiba - Na Mais Alta Montanha Da Saudade, Te Espe
TTITLE8=ro Com Toda Paciência
TTITLE9=Naná Vasconcelos - Macaco
EXTD=
EXTT0=
EXTT1=
EXTT2=
EXTT3=
EXTT4=
EXTT5=
EXTT6=
EXTT7=
EXTT8=
EXTT9=
PLAYORDER=
